<svg version="1.1" id="uuid-832749b2-24e5-4045-96f9-53fbd27a53f6"
	 xmlns="http://www.w3.org/2000/svg" xmlns:xlink="http://www.w3.org/1999/xlink" x="0px" y="0px" viewBox="0 0 198.4 211.5"
	 style="enable-background:new 0 0 198.4 211.5;" xml:space="preserve">
<style type="text/css">
	.st0{fill:#FFFFFF;}
</style>
<g id="uuid-f34e952e-c012-477b-9c2f-f5d4af6d9455">
	<path class="st0" d="M162.5,122.5c0,7.9-1.3,15.5-3.8,22.6c-2.6,7.2-6.5,13.6-11.7,19.2c-5.2,5.5-11.9,9.9-19.8,13.1
		c-7.8,3.1-17.2,4.8-27.9,4.8s-20.1-1.6-28-4.8c-8-3.2-14.7-7.6-19.9-13.1c-5.2-5.5-9.2-12-11.7-19.2c-2.5-7.1-3.8-14.7-3.8-22.6V0
		H0v122.5c0,12,2.3,23.5,6.9,34.2c4.5,10.7,11.2,20.1,19.8,28.2c8.6,8.1,19.1,14.6,31.3,19.4c12.2,4.8,26.1,7.2,41.4,7.2
		s29.2-2.4,41.4-7.2c12.2-4.8,22.7-11.3,31.2-19.4c8.5-8.1,15.1-17.6,19.6-28.2c4.6-10.7,6.9-22.2,6.9-34.2V0h-35.8L162.5,122.5
		L162.5,122.5z"/>
	<path class="st0" d="M64.2,153.7c4.1,3.9,9.2,7,15,9.3c11.8,4.6,28.2,4.6,40,0c5.8-2.3,10.9-5.4,14.9-9.3c4.1-3.8,7.2-8.4,9.4-13.5
		c2.2-5.1,3.3-10.6,3.3-16.3V0H51.5v123.9c0,5.8,1.1,11.2,3.3,16.3C57,145.4,60.1,149.9,64.2,153.7L64.2,153.7z"/>
</g>
</svg>
